# WaveFront *.obj file (generated by Cinema 4D)

mtllib ./Floor.mtl

v 1.68130874633789 -0.00370000000112 2.33270955085754
v 1.68130874633789 -0.00370000000112 -2.33849048614502
v -1.85459125041962 -0.00370000000112 -2.33849048614502
v -1.85459125041962 -0.00370000000112 2.33270955085754
# 4 vertices

vn 0 1 0
# 1 normal

vt 0.99930000305176 0.75670003890991 0
vt 0.99930000305176 0.00069999694824 0
vt 0.00069999997504 0.00069999694824 0
vt 0.00069999997504 0.75670003890991 0
# 4 texture coordinates

o FLOOR
usemtl 13___Default
f 1/3/1 2/2/1 3/1/1
f 3/1/1 4/4/1 1/3/1

